# xmcd CD database file
#
# Track frame offsets:
#	150
#	25821
#	48623
#	72209
#	107366
#	130100
#	144807
#	169873
#	197329
#	227410
#	243828
#
# Disc length: 3721 seconds
#
# Revision: 0
# Processed by: cddbd v1.5.2PL0 Copyright (c) Steve Scherf et al.
# Submitted via: CDex 1.70beta2
#
DISCID=820e870b
DTITLE=Tommy Castro - Live At The Fillmore
DYEAR=2000
DGENRE=Blues
TTITLE0=Right As Rain
TTITLE1=Like An Angel
TTITLE2=Nasty Habits
TTITLE3=My Time After Awhile
TTITLE4=Lucky In Love
TTITLE5=I Got To Change
TTITLE6=Can't You See What You're Doing To Me
TTITLE7=Just A Man
TTITLE8=Can't Keep A Good Man Down
TTITLE9=The Girl Can't Help It
TTITLE10=Sex Machine
EXTD=YEAR: 2000
EXTT0=
EXTT1=
EXTT2=
EXTT3=
EXTT4=
EXTT5=
EXTT6=
EXTT7=
EXTT8=
EXTT9=
EXTT10=
PLAYORDER=
